<svg width="118" height="16" viewBox="0 0 118 16" fill="none" xmlns="http://www.w3.org/2000/svg">
<path d="M35.2547 3.60986H38.2939V14.9577H40.2909V3.60986H43.3228V1.72948H35.2547V3.60986ZM27.2595 1.48168C25.3499 1.48168 23.7174 2.1522 22.3617 3.48596C20.9988 4.81971 20.3137 6.42313 20.3137 8.28163C20.3137 10.4025 21.0644 12.1153 22.5585 13.4199C23.9141 14.6006 25.452 15.1909 27.1574 15.1909C29.0888 15.1909 30.736 14.5277 32.0989 13.1939C33.4545 11.8675 34.1396 10.2568 34.1396 8.35452C34.1396 6.46686 33.4618 4.84157 32.1062 3.50053C30.7578 2.15949 29.1398 1.48168 27.2595 1.48168ZM30.6922 11.8893C29.7375 12.8514 28.5641 13.3251 27.1793 13.3251C25.8966 13.3251 24.7742 12.8514 23.7975 11.9112C22.8136 10.971 22.3253 9.76844 22.3253 8.3035C22.3253 6.91144 22.799 5.73803 23.7465 4.79056C24.694 3.8285 25.8601 3.35477 27.2303 3.35477C28.6151 3.35477 29.7739 3.83579 30.7068 4.79056C31.647 5.74532 32.1207 6.92602 32.1207 8.33994C32.1207 9.73929 31.647 10.92 30.6922 11.8893ZM99.5663 3.90139C98.4512 5.22056 97.8973 6.72194 97.8973 8.40553C97.8973 10.2859 98.5605 11.8893 99.8943 13.2231C101.228 14.5422 102.846 15.2055 104.734 15.2055C105.987 15.2055 107.19 14.8848 108.334 14.2361V11.831C108.006 12.108 107.7 12.3412 107.408 12.5307C107.117 12.7275 106.833 12.8805 106.556 12.9899C106.067 13.2158 105.47 13.3324 104.763 13.3324C103.407 13.3324 102.256 12.8587 101.315 11.9039C100.375 10.9491 99.9089 9.77573 99.9089 8.39096C99.9089 6.98432 100.375 5.79634 101.315 4.827C102.248 3.85037 103.393 3.36206 104.748 3.36206C105.98 3.36206 107.175 3.84308 108.327 4.81242V2.44373C107.219 1.79508 106.067 1.4744 104.879 1.4744C102.708 1.4744 100.937 2.28339 99.5663 3.90139ZM112.809 13.1648C112.576 12.9315 112.292 12.8149 111.971 12.8149C111.643 12.8149 111.366 12.9315 111.133 13.1648C110.9 13.398 110.783 13.6749 110.783 13.9956C110.783 14.3382 110.9 14.6224 111.125 14.8556C111.351 15.0889 111.636 15.1982 111.971 15.1982C112.299 15.1982 112.583 15.0816 112.809 14.8556C113.042 14.6224 113.159 14.3382 113.159 14.0102C113.159 13.6822 113.042 13.4053 112.809 13.1648ZM4.23584 0.738281V14.9577H5.70078H6.23282V4.97276L10.9265 9.00317L15.6201 4.97276V14.9577H16.1521H17.6171V0.738281L10.9265 6.46686L4.23584 0.738281ZM84.9971 1.72948H83.0001V14.9577H88.889V13.0846H84.9971V1.72948ZM51.3982 1.48168C49.4887 1.48168 47.8561 2.1522 46.5005 3.48596C45.1376 4.81971 44.4525 6.42313 44.4525 8.28163C44.4525 10.4025 45.2032 12.1153 46.6973 13.4199C48.0529 14.6006 49.5907 15.1909 51.2961 15.1909C53.2275 15.1909 54.8747 14.5277 56.2376 13.1939C57.5932 11.8675 58.2783 10.2568 58.2783 8.35452C58.2783 6.46686 57.6005 4.84157 56.2449 3.50053C54.8965 2.15949 53.2786 1.48168 51.3982 1.48168ZM54.831 11.8893C53.8762 12.8514 52.7028 13.3251 51.318 13.3251C50.0353 13.3251 48.9129 12.8514 47.9363 11.9112C46.9523 10.971 46.464 9.76844 46.464 8.3035C46.464 6.91144 46.9378 5.73803 47.8852 4.79056C48.8327 3.8285 49.9988 3.35477 51.369 3.35477C52.7538 3.35477 53.9126 3.83579 54.8455 4.79056C55.7857 5.74532 56.2594 6.92602 56.2594 8.33994C56.2594 9.73929 55.7857 10.92 54.831 11.8893ZM92.7736 1.72948H90.7767V14.9577H96.6656V13.0846H92.7736V1.72948ZM70.5955 1.72948H67.928L62.7824 7.00619V1.72948H60.7855V14.9577H62.7824V9.4842L63.1906 9.07605L67.9571 14.9577H70.6319L64.6191 7.72044L70.5955 1.72948ZM72.4102 14.9577H74.4072V1.72948H72.4102V14.9577Z" fill="#222222"/>
</svg>
